HIERARCHY
ROOT Hips
{
  OFFSET 1.44925e-005 102.336 -0.101585
  CHANNELS 6 Xposition Yposition Zposition Zrotation Xrotation Yrotation
  JOINT LeftUpLeg
  {
    OFFSET 8.9458 -8.66707 0.101652
    CHANNELS 3 Zrotation Xrotation Yrotation
    JOINT LeftLeg
    {
      OFFSET 0 -44.4227 1.3727
      CHANNELS 3 Zrotation Xrotation Yrotation
      JOINT LeftFoot
      {
        OFFSET -0.253549 -42.0924 -1.46059
        CHANNELS 3 Zrotation Xrotation Yrotation
        JOINT LeftToes
        {
          OFFSET -0.04 -4.41509 8.4991
          CHANNELS 3 Zrotation Xrotation Yrotation
          End Site
          {
            OFFSET 0.08 -0.047448 9.77979
          }
        }
      }
    }
  }
  JOINT Spine
  {
    OFFSET 0 11.8905 0
    CHANNELS 3 Zrotation Xrotation Yrotation
    JOINT Spine1
    {
      OFFSET 0 25.6574 0.127663
      CHANNELS 3 Zrotation Xrotation Yrotation
      JOINT RightShoulder
      {
        OFFSET -8.99 -0.362252 -0.22
        CHANNELS 3 Zrotation Xrotation Yrotation
        JOINT RightArm
        {
          OFFSET -10.2827 -0.00338 0.322123
          CHANNELS 3 Zrotation Xrotation Yrotation
          JOINT RightForeArm
          {
            OFFSET -26.364 0.099144 -1.42434
            CHANNELS 3 Zrotation Xrotation Yrotation
            JOINT RightHand
            {
              OFFSET -22.0324 0.085362 1.02216
              CHANNELS 3 Zrotation Xrotation Yrotation
              End Site
              {
                OFFSET -13.3284 -0.6 1.50291
              }
            }
          }
        }
      }
      JOINT LeftShoulder1
      {
        OFFSET 8.99 -0.362252 -0.22
        CHANNELS 3 Zrotation Xrotation Yrotation
        JOINT LeftArm
        {
          OFFSET 10.2827 -0.00337999 0.322123
          CHANNELS 3 Zrotation Xrotation Yrotation
          JOINT LeftForeArm
          {
            OFFSET 26.2597 0.099144 -1.42434
            CHANNELS 3 Zrotation Xrotation Yrotation
            JOINT LeftHand
            {
              OFFSET 22.0902 0.085362 1.02216
              CHANNELS 3 Zrotation Xrotation Yrotation
              End Site
              {
                OFFSET 13.419 -0.6 1.50291
              }
            }
          }
        }
      }
      JOINT Head
      {
        OFFSET 0 8.73416 0.011341
        CHANNELS 3 Zrotation Xrotation Yrotation
        End Site
        {
          OFFSET -0.29 12.7742 2.51395
        }
      }
    }
  }
  JOINT RightUpLeg
  {
    OFFSET -8.9458 -8.66707 0.101652
    CHANNELS 3 Zrotation Xrotation Yrotation
    JOINT RightLeg
    {
      OFFSET 0 -44.4227 1.3727
      CHANNELS 3 Zrotation Xrotation Yrotation
      JOINT RightFoot
      {
        OFFSET 0.253549 -42.0924 -1.46059
        CHANNELS 3 Zrotation Xrotation Yrotation
        JOINT RightToes
        {
          OFFSET 0.04 -4.41509 8.4991
          CHANNELS 3 Zrotation Xrotation Yrotation
          End Site
          {
            OFFSET -0.08 -0.137448 9.77979
          }
        }
      }
    }
  }
}
MOTION
Frames:	8
Frame Time:	0.0333333
188.146 103.039 5.08602 -1.58587 0.15785 -92.5118 -2.02885 1.25683 0.996783 0.419273 8.46541 18.6935 -1.51514 -12.6119 0.00643131 -1.30712e-009 8.75241e-006 -1.45914e-008 1.29298 5.38943 0.769722 -2.48676 -2.58736 1.28569 35.9646 1.70902 0.021533 42.9368 -15.4584 3.96061 7.0188 37.8943 10.0754 -10.6902 9.34569 1.05038 -43.2194 3.44851 -3.42498 -29.2356 -10.4359 1.19214 -4.81522 35.4926 -14.4907 5.82328 9.61819 -0.917488 2.29269 -3.03811 -5.7146 0.277017 1.17471 -3.03044 -0.119469 9.32327 -10.6958 2.51984 -13.143 -0.082967 0.0462048 0.000530889 0.662642 
188.146 103.039 5.11541 -1.57104 0.126219 -92.5491 -2.08046 1.27224 0.96645 0.404069 8.40638 18.7668 -1.47063 -12.6013 0.00643104 -1.30712e-009 8.75241e-006 -1.45914e-008 1.18797 5.25229 0.787051 -2.34183 -2.38304 1.28362 35.9067 1.70902 0.021533 42.9642 -15.5784 4.09327 7.02886 38.0272 10.0127 -10.6183 9.36613 0.851941 -43.3789 3.46657 -3.437 -29.1046 -10.2424 1.15828 -4.7922 35.3643 -14.5568 5.82328 9.61819 -0.917488 2.18442 -3.14463 -5.76128 0.215668 1.1206 -3.07073 -0.126241 9.40659 -10.5699 2.57838 -13.1984 -0.0820238 0.0462048 0.000530889 0.662642 
188.145 103.038 5.17703 -1.56129 0.097067 -92.5946 -2.15506 1.30161 0.920486 0.395585 8.32503 18.865 -1.4382 -12.5768 0.00643043 -1.30712e-009 8.75241e-006 -1.45914e-008 1.08628 5.15045 0.792171 -2.17176 -2.18385 1.2638 35.8356 1.70902 0.021533 42.9605 -15.842 4.26728 6.93614 38.6622 9.95505 -10.1992 9.40114 0.698504 -43.6636 3.49797 -3.45653 -28.8435 -9.62747 1.19721 -4.70994 34.8197 -14.801 5.82328 9.61819 -0.917488 2.22052 -3.39834 -5.65765 0.119969 1.06228 -3.15145 -0.104154 9.4968 -10.4352 2.62645 -13.2363 -0.0784955 0.0462048 0.000530889 0.662642 
188.142 103.037 5.24846 -1.55915 0.103618 -92.597 -2.20932 1.31157 0.8735 0.419924 8.29766 18.9136 -1.43972 -12.5671 0.00643018 -1.30712e-009 8.75241e-006 -1.45914e-008 1.08733 5.24114 0.767984 -2.1109 -2.26442 1.22654 35.8003 1.70902 0.021533 42.9132 -16.0859 4.29493 6.79999 39.3696 9.94305 -9.82362 9.42555 0.638174 -43.8957 3.51933 -3.46393 -28.6123 -8.98191 1.33401 -4.66387 34.1741 -15.0278 5.82328 9.61819 -0.917488 2.35988 -3.50493 -5.39795 0.0489607 1.05255 -3.23323 -0.0486393 9.50458 -10.398 2.62754 -13.2196 -0.0754781 0.0462048 0.000530889 0.662642 
188.132 103.036 5.31213 -1.55083 0.129405 -92.565 -2.2369 1.29093 0.839456 0.451801 8.32735 18.9105 -1.43981 -12.5813 0.00643054 -1.30712e-009 8.75241e-006 -1.45914e-008 1.13949 5.39784 0.743646 -2.12303 -2.50439 1.19897 35.7932 1.70902 0.021533 42.8648 -16.1628 4.1775 6.78072 39.4489 9.93609 -9.88865 9.43348 0.491586 -44.0121 3.52302 -3.45211 -28.4905 -8.72601 1.45138 -4.7014 33.8601 -15.0681 5.82328 9.61819 -0.917488 2.35264 -3.23568 -5.18365 0.026443 1.06888 -3.25834 -0.0248274 9.46765 -10.4205 2.65064 -13.198 -0.0727571 0.0462048 0.000530889 0.662642 
188.116 103.035 5.36256 -1.54597 0.145648 -92.5429 -2.24514 1.28719 0.844609 0.441871 8.33991 18.8836 -1.40049 -12.5923 0.00643082 -1.30712e-009 8.75241e-006 -1.45914e-008 1.15825 5.41002 0.73584 -2.13032 -2.56676 1.19055 35.8188 1.70902 0.0240134 42.8288 -16.1271 4.10931 6.885 39.0739 9.88551 -10.1465 9.42925 0.377207 -44.0513 3.52169 -3.43715 -28.4466 -8.80753 1.46053 -4.7074 33.8946 -15.047 5.82328 9.61819 -0.917488 2.40664 -2.75806 -4.95149 0.0351943 1.08602 -3.21797 -0.0702001 9.45082 -10.4327 2.74669 -13.2008 -0.0705653 0.0462048 0.000530889 0.662642 
188.103 103.035 5.40386 -1.57077 0.142876 -92.538 -2.25214 1.34451 0.881613 0.393836 8.29475 18.851 -1.31966 -12.5869 0.00643068 -1.30712e-009 8.75241e-006 -1.45914e-008 1.1433 5.29231 0.717034 -2.14479 -2.38131 1.17602 35.8842 1.70902 0.0353033 42.8053 -16.1335 4.21178 6.98404 38.9841 9.78497 -10.1822 9.41309 0.55994 -44.034 3.51802 -3.43601 -28.45 -9.01645 1.38623 -4.62725 34.085 -15.0784 5.82328 9.61819 -0.917488 2.86805 -2.46508 -4.48454 0.0300321 1.1118 -3.18701 -0.125598 9.47232 -10.4295 2.84381 -13.2125 -0.0692033 0.0462048 0.000530889 0.662642 
188.095 103.034 5.445 -1.61561 0.13588 -92.5227 -2.27289 1.42628 0.904196 0.360161 8.23813 18.8256 -1.22978 -12.5834 0.00725697 -1.30712e-009 8.75241e-006 -1.45914e-008 1.15064 5.26454 0.670095 -2.20174 -2.2507 1.13989 35.9119 1.709 0.0480093 42.8486 -16.1769 4.3547 7.02029 39.2563 9.68869 -10.0768 9.38674 0.963578 -43.9655 3.51532 -3.44558 -28.4953 -9.3133 1.30001 -4.62185 34.3223 -15.014 5.82328 9.61819 -0.917488 3.34895 -2.62367 -4.00148 -0.00295578 1.14662 -3.21287 -0.132781 9.50366 -10.4545 2.8537 -13.2126 -0.0695922 0.0462048 0.000530889 0.662642 
